<?xml version="1.0" encoding="utf-8"?>
<!-- Generator: Adobe Illustrator 27.5.0, SVG Export Plug-In . SVG Version: 6.00 Build 0)  -->
<svg version="1.1" xmlns="http://www.w3.org/2000/svg" xmlns:xlink="http://www.w3.org/1999/xlink" x="0px" y="0px"
	 viewBox="0 0 500 500" style="enable-background:new 0 0 500 500;" xml:space="preserve">
<g id="BACKGROUND">
</g>
<g id="OBJECTS">
	<g>
		<g>
			<rect style="fill:#94C6F2;" width="500" height="500"/>
			<g>
				<rect x="144.854" style="fill:#DDEEFC;" width="3" height="444.061"/>
				<rect x="352.146" style="fill:#DDEEFC;" width="3" height="444.061"/>
			</g>
			<g>
				<path style="fill:#FEFEFE;" d="M39.147,271.444c0.625-1.425,0.978-2.997,0.978-4.652c0-6.407-5.194-11.6-11.6-11.6
					c-6.407,0-11.6,5.194-11.6,11.6c0,1.656,0.352,3.227,0.978,4.652H39.147z"/>
				<path style="fill:#FEFEFE;" d="M71.806,271.444c0.625-1.425,0.978-2.997,0.978-4.652c0-6.407-5.194-11.6-11.6-11.6
					c-6.406,0-11.6,5.194-11.6,11.6c0,1.656,0.352,3.227,0.978,4.652H71.806z"/>
				<path style="fill:#FEFEFE;" d="M58.496,271.444c1.696-2.513,2.687-5.541,2.687-8.801c0-8.698-7.051-15.749-15.749-15.749
					c-8.698,0-15.749,7.051-15.749,15.749c0,3.26,0.991,6.289,2.687,8.801H58.496z"/>
			</g>
			<g>
				<path style="fill:#FEFEFE;" d="M421.527,93.102c0.881-2.007,1.377-4.221,1.377-6.554c0-9.025-7.316-16.341-16.341-16.341
					c-9.025,0-16.341,7.316-16.341,16.341c0,2.333,0.496,4.546,1.377,6.554H421.527z"/>
				<path style="fill:#FEFEFE;" d="M467.533,93.102c0.881-2.007,1.377-4.221,1.377-6.554c0-9.025-7.316-16.341-16.341-16.341
					c-9.025,0-16.341,7.316-16.341,16.341c0,2.333,0.497,4.546,1.377,6.554H467.533z"/>
				<path style="fill:#FEFEFE;" d="M448.784,93.102c2.39-3.54,3.785-7.806,3.785-12.398c0-12.253-9.933-22.185-22.185-22.185
					c-12.253,0-22.185,9.933-22.185,22.185c0,4.592,1.396,8.858,3.785,12.398H448.784z"/>
			</g>
		</g>
		<g>
			<g>
				<rect x="197.148" y="377.597" style="fill:#383A79;" width="18.409" height="74.644"/>
				<rect x="287.202" y="377.597" style="fill:#383A79;" width="18.409" height="74.644"/>
				<rect x="377.255" y="377.597" style="fill:#383A79;" width="18.409" height="74.644"/>
				<rect x="467.309" y="377.597" style="fill:#1885D7;" width="18.409" height="74.644"/>
			</g>
			<g>
				<rect x="197.148" y="377.597" style="opacity:0.78;fill:#014386;" width="18.409" height="11.379"/>
				<rect x="287.202" y="377.597" style="opacity:0.78;fill:#014386;" width="18.409" height="11.379"/>
				<rect x="377.255" y="377.597" style="opacity:0.78;fill:#014386;" width="18.409" height="11.379"/>
				<rect x="467.309" y="377.597" style="opacity:0.78;fill:#014386;" width="18.409" height="11.379"/>
			</g>
			<g>
				<path style="fill:#01366B;" d="M500,282.891H212.843c-9.07,0-16.423,7.353-16.423,16.423v63.808H500V282.891z"/>
				<path style="fill:#044385;" d="M500,358.936H175.669c-2.317,0-4.195,1.878-4.195,4.195v8.56c0,5.479,4.442,9.921,9.921,9.921
					H500V358.936z"/>
				<g>
					<polygon style="fill:#1885D7;" points="500,300.857 218.434,300.857 216.975,306.795 500,306.795 					"/>
					<polygon style="fill:#1885D7;" points="500,314.557 218.434,314.557 216.975,320.495 500,320.495 					"/>
					<polygon style="fill:#1885D7;" points="500,328.257 218.434,328.257 216.975,334.195 500,334.195 					"/>
					<polygon style="fill:#1885D7;" points="500,341.957 218.434,341.957 216.975,347.896 500,347.896 					"/>
				</g>
			</g>
		</g>
		<g>
			<rect y="427.333" style="fill:#044385;" width="500" height="72.667"/>
			<rect y="427.333" style="fill:#03366B;" width="500" height="44.321"/>
		</g>
	</g>
	<g>
		<g>
			<rect x="92.788" style="fill:#0F1822;" width="8.569" height="38.052"/>
			<rect x="207.967" style="fill:#0F1822;" width="8.569" height="38.052"/>
		</g>
		<g>
			<path style="fill:#044385;" d="M44.854,67.836v149.529c0,4.977,4.035,9.012,9.012,9.012h201.591c4.977,0,9.012-4.035,9.012-9.012
				V67.836l-109.808-7.325L44.854,67.836z"/>
			<path style="fill:#FBB766;" d="M264.47,67.836H44.854V51.785c0-11.291,9.153-20.444,20.444-20.444h178.727
				c11.291,0,20.444,9.153,20.444,20.444V67.836z"/>
			<rect x="62.987" y="93.556" style="fill:#031733;" width="186.498" height="15.287"/>
			<text transform="matrix(1 0 0 1 66.6487 104.4735)" style="fill:#DDEEFC; font-family:'Poppins-Medium'; font-size:7.6187px;">09:30</text>
			
				<text transform="matrix(1 0 0 1 70.5398 83.371)" style="fill:#DDEEFC; font-family:'Poppins-Medium'; font-size:5.3305px; letter-spacing:1;">TIME</text>
			
				<text transform="matrix(1 0 0 1 161.0203 83.371)" style="fill:#DDEEFC; font-family:'Poppins-Medium'; font-size:5.3305px; letter-spacing:1;">GATE</text>
			
				<text transform="matrix(1 0 0 1 202.3108 83.371)" style="fill:#DDEEFC; font-family:'Poppins-Medium'; font-size:5.3305px; letter-spacing:1;">STATUS</text>
			
				<text transform="matrix(1 0 0 1 100.5892 83.371)" style="fill:#DDEEFC; font-family:'Poppins-Medium'; font-size:5.3305px; letter-spacing:1;">DESTINATION</text>
			
				<text transform="matrix(1 0 0 1 107.2654 56.4364)" style="fill:#031733; font-family:'Poppins-Bold'; font-size:14.6875px; letter-spacing:3;">DEPARTURES</text>
			<text transform="matrix(1 0 0 1 98.8138 104.4735)" style="fill:#DDEEFC; font-family:'Poppins-Medium'; font-size:7.6187px;">BARCELONA</text>
			<text transform="matrix(1 0 0 1 191.2776 104.4735)" style="fill:#F9104A; font-family:'Poppins-Medium'; font-size:7.6187px;">CANCELLED</text>
			<text transform="matrix(1 0 0 1 161.6141 104.4735)" style="fill:#DDEEFC; font-family:'Poppins-Medium'; font-size:7.6187px;">C53</text>
			<rect x="62.987" y="119.853" style="fill:#031733;" width="186.498" height="15.287"/>
			<text transform="matrix(1 0 0 1 67.5325 130.7713)" style="fill:#DDEEFC; font-family:'Poppins-Medium'; font-size:7.6187px;">10:40</text>
			<text transform="matrix(1 0 0 1 97.8533 130.7713)" style="fill:#DDEEFC; font-family:'Poppins-Medium'; font-size:7.6187px;">HONG KONG</text>
			<text transform="matrix(1 0 0 1 191.2776 130.7713)" style="fill:#F9104A; font-family:'Poppins-Medium'; font-size:7.6187px;">CANCELLED</text>
			<text transform="matrix(1 0 0 1 161.6141 130.7713)" style="fill:#DDEEFC; font-family:'Poppins-Medium'; font-size:7.6187px;">C53</text>
			<rect x="62.987" y="146.15" style="fill:#031733;" width="186.498" height="15.287"/>
			<text transform="matrix(1 0 0 1 68.6712 157.0692)" style="fill:#DDEEFC; font-family:'Poppins-Medium'; font-size:7.6187px;">11:50</text>
			<text transform="matrix(1 0 0 1 102.219 157.0692)" style="fill:#DDEEFC; font-family:'Poppins-Medium'; font-size:7.6187px;">PARIS BVR</text>
			<text transform="matrix(1 0 0 1 191.2776 157.0692)" style="fill:#F9104A; font-family:'Poppins-Medium'; font-size:7.6187px;">CANCELLED</text>
			<text transform="matrix(1 0 0 1 161.6141 157.0692)" style="fill:#DDEEFC; font-family:'Poppins-Medium'; font-size:7.6187px;">C53</text>
			<rect x="62.987" y="172.447" style="fill:#031733;" width="186.498" height="15.287"/>
			<text transform="matrix(1 0 0 1 67.7835 183.3641)" style="fill:#DDEEFC; font-family:'Poppins-Medium'; font-size:7.6187px;">12:45</text>
			<text transform="matrix(1 0 0 1 102.4095 183.3641)" style="fill:#DDEEFC; font-family:'Poppins-Medium'; font-size:7.6187px;">DENMARK </text>
			<text transform="matrix(1 0 0 1 191.2776 183.3641)" style="fill:#F9104A; font-family:'Poppins-Medium'; font-size:7.6187px;">CANCELLED</text>
			<text transform="matrix(1 0 0 1 161.6141 183.3641)" style="fill:#DDEEFC; font-family:'Poppins-Medium'; font-size:7.6187px;">C53</text>
			<rect x="62.987" y="198.744" style="fill:#031733;" width="186.498" height="15.287"/>
			<text transform="matrix(1 0 0 1 68.8426 209.66)" style="fill:#DDEEFC; font-family:'Poppins-Medium'; font-size:7.6187px;">13:10</text>
			<text transform="matrix(1 0 0 1 102.0286 209.66)" style="fill:#DDEEFC; font-family:'Poppins-Medium'; font-size:7.6187px;">NEW YORK</text>
			<text transform="matrix(1 0 0 1 191.2776 209.66)" style="fill:#F9104A; font-family:'Poppins-Medium'; font-size:7.6187px;">CANCELLED</text>
			<text transform="matrix(1 0 0 1 161.6141 209.66)" style="fill:#DDEEFC; font-family:'Poppins-Medium'; font-size:7.6187px;">C53</text>
			<path style="fill:#031733;" d="M68.685,59.145l-3.575-3.575c-0.289-0.289-0.036-0.778,0.367-0.709l3.207,0.546
				c0.501,0.085,1.016,0.015,1.475-0.201l4.072-1.916c0.461-0.217,0.569-0.824,0.211-1.187l-6.902-6.996
				c-0.305-0.309-0.174-0.83,0.24-0.959l2.631-0.819c0.94-0.292,1.964-0.08,2.71,0.562l7.664,6.597l8.527-4.151
				c0,0,2.02-0.785,2.805,0.673c0.785,1.458-0.621,2.196-0.621,2.196L70.431,59.439C69.846,59.723,69.145,59.605,68.685,59.145z"/>
		</g>
	</g>
	<g>
		<g>
			<path style="fill:#FEFEFE;" d="M369.104,128.06c-18.611-0.716-34.277,13.791-34.993,32.402
				c-0.626,16.289,10.409,30.323,25.651,34.05l8.047,13.938l8.052-13.947c14.242-3.495,25.054-16.066,25.645-31.45
				C402.222,144.442,387.715,128.775,369.104,128.06z"/>
			<g>
				
					<line style="fill:none;stroke:#DB383C;stroke-width:7;stroke-miterlimit:10;" x1="356.718" y1="152.942" x2="378.899" y2="175.122"/>
				
					<line style="fill:none;stroke:#DB383C;stroke-width:7;stroke-miterlimit:10;" x1="378.899" y1="152.942" x2="356.718" y2="175.122"/>
			</g>
		</g>
		<g>
			<path style="fill:#393762;" d="M340.914,261.473l-2.774-9.6c-0.713-2.469-1.06-5.03-1.029-7.6l0,0
				c0.062-5.188,1.637-10.254,4.591-14.52c3.746-5.41,9.044-9.596,14.129-9.596c7.169,0,2.483,9.401,2.483,9.401
				s17.07-12.606,24.389-5.447c3.868,3.783-2.218,13.317-2.218,13.317s13.403-1.322,14.321,4.497
				c0.628,3.977-4.638,6.073-8.329,7.056c-2.653,0.706-4.674,2.853-5.263,5.535l-1.528,6.956H340.914z"/>
			<path style="fill:#F6AC82;" d="M304.114,314.037c0,0-13.922,18.509-8.176,37.773h8.176l9.857-15.501L304.114,314.037z"/>
			<path style="fill:#F6AC82;" d="M413.872,314.037c0,0,13.922,18.509,8.176,37.773h-8.176l-9.857-15.501L413.872,314.037z"/>
			<path style="fill:#F2F2F7;" d="M313.971,349.893l90.652,7.229l-4.436-28.006l24.906-3.578c0,0-15.148-39.133-21.28-46.798
				c-5.261-6.577-22.195-11.072-26.899-12.216H342.1c-4.704,1.144-21.638,5.639-26.899,12.216
				c-6.132,7.665-21.28,46.798-21.28,46.798l24.906,3.578L313.971,349.893z"/>
			<polygon style="opacity:0.53;fill:#D4DEE2;" points="316.99,336.977 313.971,349.893 404.623,357.121 401.432,336.977 			"/>
			<rect x="327.445" y="308.53" style="fill:#DA5955;" width="64.93" height="8.535"/>
			<path style="fill:#1885D7;" d="M432.039,359.189c-4.513-5.25-27.472-16.067-36.537-16.078
				c-6.879-0.008-26.786-0.021-35.995-0.027c-9.287-0.008-28.984-0.024-35.818-0.026c-9.065-0.002-32.039,10.782-36.561,16.025
				c-4.521,5.243-1.589,14.893-1.589,14.893s19.731,58.443,20.733,60.812c1.002,2.369,1.069,13.509,1.069,13.509l24.112,1.13
				c0.897-9.193-1.821-17.287-1.821-17.287c0.586-8.879-11.433-44.941-14.593-54.239c-0.419-1.233,0.212-2.564,1.432-3.017
				c5.717-2.124,21.582-7.845,34.597-10.931c5.601-1.328,11.422-1.323,17.021,0.012c13.011,3.104,28.867,8.849,34.581,10.981
				c1.22,0.455,1.848,1.787,1.428,3.019c-3.173,9.294-15.245,45.338-14.672,54.218c0,0-2.73,8.09-1.846,17.285l24.113-1.094
				c0,0,0.083-11.14,1.089-13.508c1.006-2.367,20.822-60.781,20.822-60.781S436.552,364.439,432.039,359.189z"/>
			<path style="opacity:0.49;fill:#167BC7;" d="M306.577,435.915c0.711,3.636,0.765,12.383,0.765,12.383l24.112,1.13
				c0.521-5.333-0.175-10.284-0.852-13.512l0,0c-7.371-3.124-15.671-3.249-23.132-0.347L306.577,435.915z"/>
			<path style="opacity:0.49;fill:#167BC7;" d="M388.462,435.915c-0.684,3.225-1.396,8.195-0.881,13.553l24.113-1.094
				c0,0,0.068-8.875,0.8-12.459l-0.984-0.36c-5.868-2.145-12.25-2.451-18.296-0.877L388.462,435.915z"/>
			<path style="opacity:0.49;fill:#167BC7;" d="M432.039,359.189c-2.658-3.091-11.712-8.113-20.559-11.722
				c-0.005-0.002-0.01-0.004-0.016-0.006c-0.466-0.19-0.93-0.376-1.394-0.557c-0.01-0.004-0.019-0.008-0.029-0.012
				c-0.446-0.175-0.891-0.345-1.333-0.511c-0.029-0.011-0.057-0.022-0.086-0.033c-0.425-0.159-0.848-0.313-1.268-0.463
				c-0.044-0.016-0.088-0.032-0.132-0.048c-0.411-0.146-0.817-0.286-1.221-0.423c-0.051-0.017-0.102-0.036-0.153-0.053
				c-0.382-0.128-0.759-0.251-1.133-0.37c-0.072-0.023-0.146-0.048-0.217-0.07c-0.355-0.112-0.704-0.217-1.052-0.32
				c-0.086-0.026-0.175-0.054-0.26-0.079c-0.322-0.094-0.637-0.181-0.952-0.267c-0.106-0.029-0.216-0.061-0.321-0.089
				c-0.295-0.079-0.581-0.149-0.867-0.22c-0.118-0.029-0.239-0.062-0.355-0.089c-0.271-0.065-0.533-0.121-0.796-0.177
				c-0.123-0.027-0.251-0.057-0.372-0.082c-0.256-0.053-0.502-0.096-0.749-0.14c-0.119-0.021-0.243-0.047-0.359-0.067
				c-0.24-0.04-0.469-0.07-0.699-0.102c-0.114-0.016-0.233-0.036-0.345-0.05c-0.239-0.029-0.464-0.048-0.691-0.067
				c-0.092-0.008-0.191-0.021-0.282-0.027c-0.312-0.021-0.611-0.032-0.896-0.033c-0.229,0-0.474-0.001-0.731-0.001
				c-0.049,0-0.104,0-0.154,0c-0.212,0-0.429,0-0.658-0.001c-0.014,0-0.026,0-0.04,0l0,0c-7.961-0.008-25.829-0.02-34.411-0.025
				c-9.074-0.008-28.081-0.023-35.322-0.025l0,0c-0.17,0-0.34,0-0.497,0c-0.286,0-0.587,0.011-0.9,0.032
				c-0.091,0.006-0.19,0.019-0.283,0.027c-0.227,0.019-0.454,0.038-0.693,0.066c-0.122,0.015-0.253,0.037-0.378,0.054
				c-0.221,0.031-0.441,0.059-0.671,0.098c-0.129,0.021-0.265,0.049-0.396,0.073c-0.238,0.043-0.475,0.085-0.722,0.135
				c-0.125,0.026-0.257,0.057-0.384,0.084c-0.261,0.056-0.521,0.112-0.791,0.176c-0.128,0.03-0.261,0.066-0.391,0.098
				c-0.278,0.068-0.555,0.137-0.841,0.213c-0.122,0.033-0.249,0.069-0.372,0.103c-0.301,0.082-0.602,0.165-0.909,0.255
				c-0.109,0.032-0.222,0.067-0.332,0.1c-0.329,0.098-0.66,0.198-0.996,0.303c-0.089,0.028-0.181,0.059-0.27,0.087
				c-0.361,0.115-0.725,0.233-1.093,0.357c-0.072,0.024-0.146,0.05-0.219,0.075c-0.389,0.132-0.779,0.266-1.174,0.407
				c-0.057,0.02-0.115,0.042-0.172,0.062c-0.412,0.147-0.827,0.298-1.244,0.454c-0.041,0.016-0.083,0.032-0.125,0.047
				c-0.434,0.163-0.869,0.329-1.307,0.5c-0.029,0.012-0.059,0.023-0.088,0.035c-0.45,0.176-0.9,0.356-1.352,0.54
				c-0.02,0.008-0.039,0.016-0.059,0.024c-0.462,0.189-0.923,0.38-1.385,0.576c-0.01,0.004-0.02,0.009-0.03,0.013
				c-0.471,0.2-0.941,0.402-1.409,0.608c-0.003,0.001-0.007,0.003-0.01,0.004c-0.474,0.208-0.947,0.42-1.417,0.634
				c0,0-0.001,0-0.001,0l0,0c-7.275,3.31-13.93,7.212-16.146,9.783c-0.687,0.797-1.186,1.703-1.565,2.654
				c7.676,1.465,15.257,3.905,22.878,1.27c3.09-1.068,5.408-2.747,7.271-4.793c5.32-5.841,13.035-8.914,20.936-8.914h47.58
				c8.019,0,15.672,3.338,21.145,9.199c3.124,3.347,6.528,6.224,10.18,8.078c6.518,3.31,12.385-1.284,17.173-6.456
				C432.518,359.8,432.293,359.485,432.039,359.189z"/>
			<path style="fill:#DCAE6D;" d="M301.748,455.671c0,0,4.971-17.431,17.988-17.421c13.016,0.009,17.02,17.447,17.02,17.447
				L301.748,455.671z"/>
			<path style="fill:#865A37;" d="M301.748,455.671l-0.004,5.846l2.351,0.002c-0.001,1.192,0.965,2.159,2.157,2.16
				c1.192,0.001,2.159-0.965,2.16-2.157l3.964,0.003c-0.001,1.192,0.965,2.159,2.157,2.16c1.192,0.001,2.159-0.965,2.16-2.157
				l3.964,0.003c-0.001,1.192,0.965,2.159,2.157,2.16c1.192,0.001,2.159-0.965,2.16-2.157l3.964,0.003
				c-0.001,1.192,0.965,2.159,2.157,2.16c1.192,0.001,2.159-0.965,2.16-2.157l3.498,0.003l0.004-5.846L301.748,455.671z"/>
			<path style="fill:#DCAE6D;" d="M417.277,455.755c0,0-4.946-17.438-17.962-17.448c-13.016-0.01-17.045,17.422-17.045,17.422
				L417.277,455.755z"/>
			<path style="fill:#865A37;" d="M417.277,455.755l-0.004,5.846l-2.351-0.002c-0.001,1.192-0.968,2.158-2.16,2.157
				c-1.192-0.001-2.158-0.968-2.157-2.16l-3.964-0.003c-0.001,1.192-0.968,2.158-2.16,2.157c-1.192-0.001-2.158-0.968-2.157-2.16
				l-3.964-0.003c-0.001,1.192-0.968,2.158-2.16,2.157c-1.192-0.001-2.158-0.968-2.157-2.16l-3.964-0.003
				c-0.001,1.192-0.968,2.158-2.16,2.157c-1.192-0.001-2.158-0.968-2.157-2.16l-3.498-0.003l0.004-5.846L417.277,455.755z"/>
			<ellipse style="fill:#F69762;" cx="358.488" cy="281.149" rx="11.32" ry="12.997"/>
			<path style="fill:#F6AA80;" d="M358.488,290.888c-5.77,0-10.522-4.961-11.221-11.368c-0.058,0.535-0.098,1.076-0.098,1.629
				c0,7.178,5.068,12.997,11.32,12.997s11.32-5.819,11.32-12.997c0-0.553-0.04-1.094-0.098-1.629
				C369.01,285.927,364.258,290.888,358.488,290.888z"/>
			<path style="fill:#F6B28C;" d="M343.297,258.469c0,0-1.755-4.68-3.51-5.148s-0.936,2.808-0.702,5.148
				c0.234,2.34-1.723,13.074,0.585,13.455c2.308,0.381,3.627-1.17,3.627-1.17V258.469z"/>
			<path style="fill:#F6B28C;" d="M376.496,259.637c0,0,2.257-4.46,4.053-4.732c1.796-0.273,0.623,2.894,0.134,5.194
				c-0.489,2.3,0.281,13.184-2.055,13.31c-2.336,0.126-3.477-1.56-3.477-1.56L376.496,259.637z"/>
			<g>
				<path style="fill:#F6B28C;" d="M341.22,251.948c1.853-12.283,11.286-18.863,20.167-18.22
					c8.881,0.642,17.325,8.515,17.487,20.944c0.095,7.28-1.923,15.007-3.314,19.436c-0.827,2.636-2.229,4.994-4.092,6.813
					c-4.27,4.171-9.692,7.384-13.795,7.086c-4.104-0.297-9.035-4.258-12.695-9.003c-1.597-2.07-2.663-4.608-3.124-7.336
					C341.081,267.085,340.134,259.144,341.22,251.948z"/>
			</g>
			<path style="fill:#393762;" d="M340.431,251.66l2.254,11.574h1.59c0,0-5.699-19.882,16.303-19.882v-11.266l-17.282,2.916
				L340.431,251.66z"/>
			<path style="fill:#393762;" d="M380.242,254.141l-1.77,9.092h-1.591c0,0,5.7-19.882-16.303-19.882v-11.266l17.282,2.916
				L380.242,254.141z"/>
			<path style="fill:#252A30;" d="M354.836,263.219c0.014,1.198-0.513,2.176-1.179,2.184c-0.666,0.008-1.217-0.957-1.231-2.155
				c-0.014-1.198,0.514-2.176,1.179-2.184C354.27,261.056,354.822,262.021,354.836,263.219z"/>
			<path style="fill:#252A30;" d="M367.189,263.219c0.014,1.198-0.513,2.176-1.179,2.184c-0.666,0.008-1.217-0.957-1.231-2.155
				c-0.014-1.198,0.514-2.176,1.179-2.184C366.623,261.056,367.174,262.021,367.189,263.219z"/>
			<path style="fill:#D26E4E;" d="M359.865,270.151c0.526,0.042,1.122,0.022,1.788-0.06l-0.131-1.053
				c-1.484,0.185-2.564,0.016-3.047-0.473c-0.213-0.214-0.271-0.452-0.285-0.591c3.324-4.198,3.683-9.551,3.697-9.78l-1.059-0.064
				c-0.003,0.053-0.366,5.374-3.578,9.321l-0.095,0.116l-0.019,0.148c-0.013,0.091-0.098,0.906,0.586,1.596
				C358.2,269.794,358.917,270.074,359.865,270.151z"/>
			<path style="fill:#252A30;" d="M365.03,278.911h0.443c-0.353-2.404-1.529-5.48-5.257-5.46c-4.189,0.022-6.217,3.218-7.192,5.97
				h0.291c1.419-1.79,4.079-3.247,6.901-3.262C362.586,276.145,364.166,277.388,365.03,278.911z"/>
			<path style="opacity:0.53;fill:#D4DEE2;" d="M331.006,300.864c0-0.416-0.832-9.706-0.832-9.706l-3.328,11.671L331.006,300.864z"
				/>
			<path style="opacity:0.53;fill:#D4DEE2;" d="M386.775,300.864c0-0.416,0.832-9.706,0.832-9.706l3.328,11.671L386.775,300.864z"/>
			<path style="fill:#F6BA99;" d="M336.176,255.686c0,0-4.471,7.601-4.918,12.966c-0.447,5.365,5.365,19.225,5.365,19.225
				s-25.037,34.873-30.849,41.132c-5.812,6.259-10.73,16.99-9.836,22.802c0.894,5.812,6.259,10.73,13.413,4.918
				c7.153-5.812,25.931-46.497,27.719-51.862c1.788-5.365,8.942-13.86,9.389-18.331c0.447-4.471-4.471-10.283-5.812-13.413
				C339.306,269.993,339.306,255.686,336.176,255.686z"/>
			<path style="fill:#F6AF87;" d="M340.647,273.123c-0.628-1.464-0.962-5.376-1.46-9.123c-1.388,5.579-0.091,11.137,3.428,16.769
				c1.724,2.76,2.888,5.302,3.294,7.846c0.288-0.755,0.488-1.459,0.55-2.078C346.906,282.064,341.988,276.252,340.647,273.123z"/>
			<path style="fill:#F6BA99;" d="M382.321,255.686c0,0,4.471,7.601,4.918,12.966c0.447,5.365-5.365,19.225-5.365,19.225
				s25.037,34.873,30.849,41.132c5.812,6.259,10.73,16.99,9.836,22.802c-0.894,5.812-6.259,10.73-13.413,4.918
				c-7.153-5.812-25.931-46.497-27.72-51.862c-1.788-5.365-8.942-13.86-9.389-18.331c-0.447-4.471,4.471-10.283,5.812-13.413
				C379.192,269.993,379.192,255.686,382.321,255.686z"/>
			<path style="fill:#F6AF87;" d="M377.851,273.123c0.628-1.464,0.962-5.376,1.46-9.123c1.388,5.579,0.091,11.137-3.428,16.769
				c-1.724,2.76-2.888,5.302-3.294,7.846c-0.288-0.755-0.488-1.459-0.55-2.078C371.591,282.064,376.509,276.252,377.851,273.123z"/>
		</g>
	</g>
	<g>
		<g>
			<path style="fill:#FBB766;" d="M122.22,406.043c0,0-20.103-74.31,12.126-87.338l9.254,34.896L122.22,406.043z"/>
			<path style="fill:#099AF4;" d="M209.901,298.351c0-6.282-1.817-11.375-4.059-11.375c-0.187,0-0.372,0.036-0.553,0.106
				c-4.578,0.87-38.021,1.532-49.053,1.532c-11.9,0-39.059-1.638-41.968-1.638v27.059c0,0,80.312-1.695,91.591-4.309
				c0.271-0.003,0.536-0.081,0.793-0.226c0.339-0.125,0.517-0.253,0.517-0.382c0-0.005,0-0.009,0-0.014
				C208.759,307.563,209.901,303.331,209.901,298.351z"/>
			<path style="fill:#014386;" d="M118.327,300.505c0,7.472-1.817,13.529-4.058,13.529c-2.242,0-4.058-6.057-4.058-13.529
				c0-7.472,1.817-13.53,4.058-13.53C116.51,286.975,118.327,293.033,118.327,300.505z"/>
			<path style="fill:#C0034C;" d="M198.079,317.263c-0.546-8.788-5.798-14.433-16.32-16.365
				c-71.963-13.215-52.109,52.562-59.179,87.6c-5.132,25.433-14.022,55.499,7.28,59.084c21.303,3.586,67.518,0.544,71.794-6.511
				C205.027,435.508,200.252,352.257,198.079,317.263z"/>
			<path style="fill:#18287D;" d="M155.477,317.934l4.526-1.432c0,0,32.548,71.801-5.913,124.452l-7.828-3.977
				c0,0,13.489-28.603,17.231-58.249C167.349,348.172,155.477,317.934,155.477,317.934z"/>
			<path style="fill:#18287D;" d="M181.246,316.502l4.641-1.468c0,0,32.548,71.801-5.913,124.452l-7.828-3.977
				c0,0,16.424-28.379,17.231-58.249C190.191,347.145,181.246,316.502,181.246,316.502z"/>
		</g>
		<g>
			<path style="fill:none;stroke:#FBB766;stroke-width:2;stroke-miterlimit:10;" d="M163.308,410.076
				c0.968-1.694,5.566-41.57,24.929-41.57c19.362,0,24.445,41.57,24.445,41.57"/>
			<path style="fill:none;stroke:#FBB766;stroke-width:2;stroke-miterlimit:10;" d="M170.767,407.488
				c0.937-1.64,5.388-40.233,24.127-40.233c18.74,0,23.659,40.233,23.659,40.233"/>
			<path style="fill:#FC9C3A;" d="M235.877,458.831h-87.192c-5.28,0-9.561-4.28-9.561-9.561l0,0
				c0-29.357,23.799-53.156,53.156-53.156h0c29.357,0,53.156,23.799,53.156,53.156l0,0
				C245.438,454.551,241.157,458.831,235.877,458.831z"/>
			<path style="fill:#FBBD73;" d="M214.737,451.948h-44.912c-2.72,0-4.925-2.205-4.925-4.925v0
				c0-15.122,12.259-27.381,27.381-27.381l0,0c15.122,0,27.381,12.259,27.381,27.381v0
				C219.662,449.743,217.457,451.948,214.737,451.948z"/>
			<path style="fill:#879C96;" d="M177.999,418.547L177.999,418.547c-0.601,0-1.088-0.487-1.088-1.088v-4.883h2.175v4.883
				C179.087,418.06,178.6,418.547,177.999,418.547z"/>
			<rect x="175.304" y="411.488" style="fill:#26150D;" width="35.427" height="2.178"/>
			<rect x="175.304" y="447.207" style="fill:#FB9F32;" width="35.427" height="2.178"/>
		</g>
		<g>
			<path style="fill:#26150D;" d="M64.364,466.124L64.364,466.124c-3.354,0-6.073-2.719-6.073-6.073v-12.459h12.146v12.459
				C70.437,463.405,67.718,466.124,64.364,466.124z"/>
			<path style="fill:#26150D;" d="M106.92,466.124L106.92,466.124c-3.354,0-6.073-2.719-6.073-6.073v-12.459h12.146v12.459
				C112.993,463.405,110.274,466.124,106.92,466.124z"/>
			<g>
				<path style="fill:#26150D;" d="M72.183,297.39c0-0.85,0.633-1.542,1.411-1.542h24.221c0.778,0,1.411,0.692,1.411,1.542v42.762
					h4.292V297.39c0-3.436-2.558-6.232-5.703-6.232H73.594c-3.145,0-5.703,2.795-5.703,6.232v42.762h4.292V297.39z"/>
			</g>
			<path style="fill:#FC9C3A;" d="M113.171,458.207H57.578c-9.639,0-17.454-7.814-17.454-17.454v-70.926
				c0-24.991,20.259-45.25,45.25-45.25h0c24.991,0,45.25,20.259,45.25,45.25v70.926C130.625,450.392,122.81,458.207,113.171,458.207
				z"/>
			<path style="fill:#E05738;" d="M64.489,368.51v89.697h42.43V368.51c0-3.078-2.495-5.574-5.574-5.574H70.063
				C66.985,362.936,64.489,365.431,64.489,368.51z"/>
			<rect x="70.532" y="379.358" style="fill:#C7472A;" width="29.652" height="49.325"/>
			<rect x="70.532" y="414.427" style="fill:#B34026;" width="29.652" height="14.256"/>
			<rect x="70.437" y="368.808" style="fill:#777087;" width="29.874" height="2.38"/>
			<rect x="76.226" y="289.614" style="fill:#FBB766;" width="19.491" height="8.38"/>
		</g>
	</g>
</g>
</svg>
